<svg xmlns="http://www.w3.org/2000/svg" viewBox="0 0 335 200" enable-background="new 0 0 335 200"><style type="text/css">.st0{fill:#FFD647;} .st1{fill:#FCC446;}</style><rect id="XMLID_51_" class="st0" width="335" height="200"/><g id="XMLID_54_"><g id="XMLID_6_"><path id="XMLID_4_" class="st1" d="M87.7 170.6c-2.7 0-5.2-1.5-6.4-3.9l-69.8-134.8c-.9-1.7-1.1-3.8-.4-5.7.6-1.9 2-3.4 3.8-4.2 16.7-7.5 34.7-12.2 53.6-14 15.1-1.3 30.7-.8 46.5 1.6 14 2.1 25.6 5.3 32.8 7.7 7.9 2.6 12.6 4.7 12.8 4.7 1.8.8 3.2 2.3 3.8 4.2.6 1.9.5 3.9-.4 5.7l-17.5 33.7c-1.8 3.5-6.2 4.9-9.7 3.1-3.5-1.8-4.9-6.2-3.1-9.7l13.8-26.6c-1.2-.4-2.6-.9-4.2-1.4-6.7-2.2-17.4-5.2-30.5-7.2-14.6-2.2-29.1-2.7-43-1.4-14.7 1.3-28.8 4.6-42 9.8l59.8 115.6 28.5-55.1c1.8-3.5 6.2-4.9 9.7-3.1 3.5 1.8 4.9 6.2 3.1 9.7l-34.9 67.4c-1.1 2.4-3.6 3.9-6.3 3.9z"/><circle id="XMLID_3_" class="st1" cx="67.9" cy="51.9" r="12.5"/><circle id="XMLID_2_" class="st1" cx="106.1" cy="62.1" r="9.2"/><circle id="XMLID_1_" class="st1" cx="87.7" cy="95.9" r="9.7"/></g><g id="XMLID_8_"><path id="XMLID_19_" class="st1" d="M246.3 26.9c2.7 0 5.2 1.5 6.4 3.9l69.8 134.9c.9 1.7 1.1 3.8.4 5.7-.6 1.9-2 3.4-3.8 4.2-16.7 7.6-34.7 12.3-53.6 14-15.1 1.4-30.7.8-46.5-1.5-14-2.1-25.6-5.3-32.8-7.7-7.9-2.6-12.6-4.7-12.8-4.7-1.8-.8-3.2-2.3-3.8-4.2-.6-1.9-.5-3.9.4-5.7l17.5-33.7c1.8-3.5 6.2-4.9 9.7-3.1 3.5 1.8 4.9 6.2 3.1 9.7l-13.8 26.6c1.2.4 2.6.9 4.2 1.4 6.7 2.2 17.4 5.2 30.5 7.2 14.6 2.2 29.1 2.7 43 1.4 14.7-1.3 28.8-4.6 42-9.8l-59.9-115.8-28.5 55.1c-1.8 3.5-6.2 4.9-9.7 3.1-3.5-1.8-4.9-6.2-3.1-9.7l34.9-67.4c1.2-2.5 3.7-3.9 6.4-3.9z"/><circle id="XMLID_17_" class="st1" cx="266.2" cy="145.6" r="12.5"/><circle id="XMLID_15_" class="st1" cx="227.9" cy="135.3" r="9.2"/><circle id="XMLID_12_" class="st1" cx="246.3" cy="101.5" r="9.7"/></g></g></svg>