<svg xmlns="http://www.w3.org/2000/svg" viewBox="0 0 200 200" enable-background="new 0 0 200 200"><style type="text/css">.st0{fill:#FFFFFF;}</style><path id="XMLID_6_" class="st0" d="M108.9 109c-2.3 0-4.6-.9-6.4-2.6l-50.6-50.6c-3.5-3.5-3.5-9.2 0-12.8 3.5-3.5 9.2-3.5 12.8 0l50.6 50.6c3.5 3.5 3.5 9.2 0 12.8-1.8 1.7-4.1 2.6-6.4 2.6z"/><path id="XMLID_5_" class="st0" d="M58.3 159.6c-2.3 0-4.6-.9-6.4-2.6-3.5-3.5-3.5-9.2 0-12.8l50.6-50.6c3.5-3.5 9.2-3.5 12.8 0 3.5 3.5 3.5 9.2 0 12.8l-50.6 50.6c-1.8 1.7-4.1 2.6-6.4 2.6z"/><path id="XMLID_10_" class="st0" d="M108.7 91c2.3 0 4.6.9 6.4 2.6l50.6 50.6c3.5 3.5 3.5 9.2 0 12.8-3.5 3.5-9.2 3.5-12.8 0l-50.6-50.6c-3.5-3.5-3.5-9.2 0-12.8 1.8-1.7 4.1-2.6 6.4-2.6z"/><path id="XMLID_8_" class="st0" d="M159.3 40.4c2.3 0 4.6.9 6.4 2.6 3.5 3.5 3.5 9.2 0 12.8l-50.6 50.6c-3.5 3.5-9.2 3.5-12.8 0-3.5-3.5-3.5-9.2 0-12.8l50.6-50.6c1.8-1.7 4.1-2.6 6.4-2.6z"/></svg>