<?xml version="1.0" encoding="utf-8"?>
<!-- Generator: Adobe Illustrator 19.0.0, SVG Export Plug-In . SVG Version: 6.00 Build 0)  -->
<svg version="1.1" id="Layer_1" xmlns="http://www.w3.org/2000/svg" xmlns:xlink="http://www.w3.org/1999/xlink" x="0px" y="0px"
	 viewBox="0 0 335 200" style="enable-background:new 0 0 335 200;" xml:space="preserve">
<style type="text/css">
	.st0{fill:#FFD647;}
	.st1{fill:#FCC446;}
</style>
<rect id="XMLID_51_" class="st0" width="335" height="200"/>
<g id="XMLID_54_">
	<g id="XMLID_6_">
		<g id="XMLID_13_">
			<path id="XMLID_4_" class="st1" d="M87.7,170.6c-2.7,0-5.2-1.5-6.4-3.9L11.5,31.9c-0.9-1.7-1.1-3.8-0.4-5.7
				c0.6-1.9,2-3.4,3.8-4.2C31.6,14.5,49.6,9.8,68.5,8C83.6,6.7,99.2,7.2,115,9.6c14,2.1,25.6,5.3,32.8,7.7
				c7.9,2.6,12.6,4.7,12.8,4.7c1.8,0.8,3.2,2.3,3.8,4.2c0.6,1.9,0.5,3.9-0.4,5.7l-17.5,33.7c-1.8,3.5-6.2,4.9-9.7,3.1
				c-3.5-1.8-4.9-6.2-3.1-9.7l13.8-26.6c-1.2-0.4-2.6-0.9-4.2-1.4c-6.7-2.2-17.4-5.2-30.5-7.2c-14.6-2.2-29.1-2.7-43-1.4
				c-14.7,1.3-28.8,4.6-42,9.8l59.8,115.6l28.5-55.1c1.8-3.5,6.2-4.9,9.7-3.1c3.5,1.8,4.9,6.2,3.1,9.7l-34.9,67.4
				C92.9,169.1,90.4,170.6,87.7,170.6z"/>
		</g>
		<g id="XMLID_11_">
			<circle id="XMLID_3_" class="st1" cx="67.9" cy="51.9" r="12.5"/>
		</g>
		<g id="XMLID_9_">
			<circle id="XMLID_2_" class="st1" cx="106.1" cy="62.1" r="9.2"/>
		</g>
		<g id="XMLID_7_">
			<circle id="XMLID_1_" class="st1" cx="87.7" cy="95.9" r="9.7"/>
		</g>
	</g>
	<g id="XMLID_8_">
		<g id="XMLID_18_">
			<path id="XMLID_19_" class="st1" d="M246.3,26.9c2.7,0,5.2,1.5,6.4,3.9l69.8,134.9c0.9,1.7,1.1,3.8,0.4,5.7
				c-0.6,1.9-2,3.4-3.8,4.2c-16.7,7.6-34.7,12.3-53.6,14c-15.1,1.4-30.7,0.8-46.5-1.5c-14-2.1-25.6-5.3-32.8-7.7
				c-7.9-2.6-12.6-4.7-12.8-4.7c-1.8-0.8-3.2-2.3-3.8-4.2c-0.6-1.9-0.5-3.9,0.4-5.7l17.5-33.7c1.8-3.5,6.2-4.9,9.7-3.1
				c3.5,1.8,4.9,6.2,3.1,9.7l-13.8,26.6c1.2,0.4,2.6,0.9,4.2,1.4c6.7,2.2,17.4,5.2,30.5,7.2c14.6,2.2,29.1,2.7,43,1.4
				c14.7-1.3,28.8-4.6,42-9.8L246.3,49.7l-28.5,55.1c-1.8,3.5-6.2,4.9-9.7,3.1c-3.5-1.8-4.9-6.2-3.1-9.7l34.9-67.4
				C241.1,28.3,243.6,26.9,246.3,26.9z"/>
		</g>
		<g id="XMLID_16_">
			<circle id="XMLID_17_" class="st1" cx="266.2" cy="145.6" r="12.5"/>
		</g>
		<g id="XMLID_14_">
			<circle id="XMLID_15_" class="st1" cx="227.9" cy="135.3" r="9.2"/>
		</g>
		<g id="XMLID_10_">
			<circle id="XMLID_12_" class="st1" cx="246.3" cy="101.5" r="9.7"/>
		</g>
	</g>
</g>
</svg>
